<?xml version="1.0" encoding="utf-8"?>
<svg xmlns="http://www.w3.org/2000/svg" viewBox="0 0 86 118">
<path style="fill:#FFD149;" d="M29.4,116.6c0-0.5-0.3-0.8-0.9-0.8h-1.8v2.2h0.6v-0.6h0.9l0.4,0.6h0.7l-0.4-0.7
	C29.3,117.2,29.4,116.9,29.4,116.6z M28.4,116.9h-1v-0.7h1c0.2,0,0.4,0,0.4,0.3C28.9,116.9,28.6,116.9,28.4,116.9z"/>
<path style="fill:#FFD149;" d="M32.2,115.7l-1.1,2.2h0.6l0.2-0.5h1.3l0.2,0.5h0.6l-1.2-2.2H32.2z M32.2,117.1l0.5-0.9l0.5,0.9H32.2z
	"/>
<polygon style="fill:#FFD149;" points="22.3,116.2 23.4,116.2 23.4,118 24,118 24,116.2 25.1,116.2 25.1,115.7 22.3,115.7 "/>
<path style="fill:#FFD149;" d="M1.9,115.7H0.3v2.2h1.6c0.6,0,1.1-0.4,1.1-1.1C3,116.1,2.5,115.7,1.9,115.7z M1.7,117.5H0.9v-1.3h0.8
	c0.4,0,0.7,0.1,0.7,0.6C2.5,117.4,2.2,117.5,1.7,117.5z"/>
<polygon style="fill:#FFD149;" points="20,117.4 18.4,115.7 17.7,115.7 17.7,118 18.2,118 18.2,116.3 19.8,118 20.5,118 20.5,115.7
	20,115.7 "/>
<polygon style="fill:#FFD149;" points="4.8,118 7.2,118 7.2,117.5 5.4,117.5 5.4,117.1 7.2,117.1 7.2,116.6 5.4,116.6 5.4,116.2
	7.2,116.2 7.2,115.7 4.8,115.7 "/>
<polygon style="fill:#FFD149;" points="13.5,118 15.9,118 15.9,117.5 14.1,117.5 14.1,117.1 15.9,117.1 15.9,116.6 14.1,116.6
	14.1,116.2 15.9,116.2 15.9,115.7 13.5,115.7 "/>
<path style="fill:#FFD149;" d="M10.3,116.2c0.5,0,0.8,0.1,0.8,0.5h0.6c-0.1-0.6-0.5-1-1.4-1c-1,0-1.4,0.4-1.4,1.1
	c0,0.7,0.4,1.2,1.4,1.2c0.9,0,1.3-0.3,1.4-1h-0.6c-0.1,0.4-0.3,0.5-0.8,0.5c-0.6,0-0.8-0.2-0.8-0.7C9.5,116.4,9.7,116.2,10.3,116.2z
	"/>
<path style="fill:#FFD149;" d="M70.8,115.7l-1.1,2.2h0.6l0.2-0.5h1.3L72,118h0.6l-1.2-2.2H70.8z M70.7,117.1l0.5-0.9l0.5,0.9H70.7z"
	/>
<polygon style="fill:#FFD149;" points="76.7,117.4 75.2,115.7 74.4,115.7 74.4,118 75,118 75,116.3 76.5,118 77.3,118 77.3,115.7
	76.7,115.7 "/>
<polygon style="fill:#FFD149;" points="67.3,117.4 65.8,115.7 65,115.7 65,118 65.6,118 65.6,116.3 67.1,118 67.9,118 67.9,115.7
	67.3,115.7 "/>
<rect x="62.6" y="115.7" style="fill:#FFD149;" width="0.6" height="2.2"/>
<polygon style="fill:#FFD149;" points="86,116.2 86,115.7 83.6,115.7 83.6,118 86,118 86,117.5 84.2,117.5 84.2,117.1 86,117.1
	86,116.6 84.2,116.6 84.2,116.2 "/>
<polygon style="fill:#FFD149;" points="36.4,115.7 35.9,115.7 35.9,118 38.2,118 38.2,117.5 36.4,117.5 "/>
<path style="fill:#FFD149;" d="M80.5,116.2c0.5,0,0.8,0.1,0.8,0.5h0.6c-0.1-0.6-0.5-1-1.4-1c-1,0-1.4,0.4-1.4,1.1
	c0,0.7,0.4,1.2,1.4,1.2c0.9,0,1.3-0.3,1.4-1h-0.6c-0.1,0.4-0.3,0.5-0.8,0.5c-0.6,0-0.8-0.2-0.8-0.7
	C79.6,116.4,79.9,116.2,80.5,116.2z"/>
<polygon style="fill:#FFD149;" points="58.5,118 59,118 59,117.3 60.6,117.3 60.6,116.8 59,116.8 59,116.2 60.8,116.2 60.8,115.7
	58.5,115.7 "/>
<rect x="40" y="115.7" style="fill:#FFD149;" width="0.6" height="2.2"/>
<polygon style="fill:#FFD149;" points="42.4,116.2 44.1,116.2 42.4,117.5 42.4,118 44.9,118 44.9,117.5 43.2,117.5 44.9,116.2
	44.9,115.7 42.4,115.7 "/>
<polygon style="fill:#FFD149;" points="46.7,118 49.1,118 49.1,117.5 47.3,117.5 47.3,117.1 49.1,117.1 49.1,116.6 47.3,116.6
	47.3,116.2 49.1,116.2 49.1,115.7 46.7,115.7 "/>
<path style="fill:#FFD149;" d="M52.5,115.7h-1.6v2.2h1.6c0.6,0,1.1-0.4,1.1-1.1C53.6,116.1,53.1,115.7,52.5,115.7z M52.3,117.5h-0.8
	v-1.3h0.8c0.4,0,0.7,0.1,0.7,0.6C53,117.4,52.7,117.5,52.3,117.5z"/>
<polygon style="fill:#DDDDDD;" points="82.6,97.9 82.6,107.9 73.7,97.9 69.1,97.9 69.1,111.2 72.5,111.2 72.5,101.2 81.4,111.2
	86,111.2 86,97.9 "/>
<polygon style="fill:#DDDDDD;" points="53.1,111.2 67,111.2 67,108.5 56.4,108.5 56.4,105.8 66,105.8 66,103.3 56.4,103.3
	56.4,100.6 67,100.6 67,97.9 53.1,97.9 "/>
<path style="fill:#DDDDDD;" d="M50.9,102.8c0-3-2-4.9-5-4.9H35.7v13.3H39v-3.6h5.4l2.1,3.6h4l-2.4-4C49.8,106.6,50.9,105,50.9,102.8
	z M45.1,104.7l-6.1,0v-4h6h0l0.1,0c1,0,2.4,0.1,2.4,2C47.5,104.6,46.1,104.7,45.1,104.7z"/>
<path style="fill:#DDDDDD;" d="M22.5,97.9l-6.8,13.3h3.7l1.4-2.8h7.9l1.4,2.8h3.7l-6.8-13.3H22.5z M22.1,105.9l2.7-5.5l2.7,5.5H22.1
	z"/>
<polygon style="fill:#DDDDDD;" points="14.5,97.9 9.2,108.7 3.9,97.9 0.1,97.9 6.9,111.2 11.5,111.2 18.3,97.9 "/>
<path style="fill:#DDDDDD;" d="M67.4,12.8c0.2,0.1,0.2-0.3,0.1-0.7c-0.1-0.5-0.4-7.4-0.5-7.4c-0.7-1.3-1.8-1.6-3-0.8
	C63.9,4,64,5.5,64.2,8.3C65.3,10.7,66.4,12.2,67.4,12.8z"/>
<path style="fill:#DDDDDD;" d="M85.9,48c-0.2-1.8-0.8-3-1.2-3.7C82.4,39.9,77,30.6,76,28.9c-0.3-0.4-0.7-1.2-1-2.2
	c-0.4-1.1-0.5-2.2-0.6-2.4c-0.1-0.4-0.1-0.4-0.1-0.8c0-0.2-0.2-1.4-0.7-2.5c-0.4-1-1-1.6-1.3-2.2c-0.2-0.2-0.4-0.4-0.5-0.6
	c0.8-0.2,1.4-0.4,1.4-0.4s-1.9-0.4-3.1-1.5c-0.1-0.1-0.2-0.2-0.3-0.2c0,0,0.1,0,0.1,0c1.7-0.1,3.8,0.4,3.8,0.4s-2.5-1.6-5.1-1.8
	c-0.1,0-0.1,0-0.2,0c1.7-0.5,3-1.4,3-1.4s-2.1,0.5-3.8,0.4c-0.2,0-0.5,0-0.7,0c-1.4-1.3-2.5-2.6-3-4c-0.1-0.4-0.3-0.8-0.5-1.3
	c0,0-0.3-7.2-0.3-7.3c-1.6-2.9-4.8,0.8-7.4,1.3C47.4,3.8,42.3,9.5,35.2,15c-0.5,0.4-2.5,2.9-5.8,6c-0.7,0.7-1.5,1.7-2.4,2.9
	c-3.8,1.7-7.6,4-11.8,5.8c-7.5,3.2-9.2,2.1-9.2,2.1s3.5,4.5,10.5,5.8c-1.7,1.4-3.4,2.8-5.3,4.1C5.1,46,3,45.3,3,45.3s4.5,2.8,11,3
	c-1.3,2.1-2.5,4.3-4,6.4c-4.2,5.7-6.4,5.5-6.4,5.5s6.1,2.3,12.9,0.5c1.1,6.2,3.7,12.5,4.5,15.7c2.4-0.9,22.2,3.6,31.3,5.3
	c1.4,0.3,3.1,0.4,5.1,0.3c0.5,0-6.8-14.5-22.1-43.5c17.2,28.6,26,42.9,26.4,42.8c2.5-0.6,5.2-1.7,8.2-3.5c-1.4-0.4-8.4-10-21.1-28.8
	c-1.4-2.5-2.1-5-2.1-7.3c0-2.7,1-5.6,3-8.8c0.1,2,0.3,3.6,0.6,4.9c0.5,1.9,6.8,9.7,8.7,10.4c3.1,1.2,1.8-0.8,6.6,0.9
	c0.9,0.3,1.9,0.7,3.1,1.8c1.4,1.3,2.9,3,2.9,3c0.2,0.4,0.3,0.6,0.5,1.2c0.3,0.6,2.2,3.2,3,4c0.8,0.7,1.6,1.1,2.1,1.3
	c0.4,0.2,0.8,0.3,0.9,0.3c1,0.3,1.9,0.2,2.4,0.2c0.5-0.1,2.7-2.4,3.1-2.7c0.3-0.6,0.6-1.1,0.7-1.4c0.7-1.4,0.9-2.7,1.3-4.8
	C85.9,50.4,86.1,49.3,85.9,48z M63.6,21.1c0-0.8,1.4-1.5,1.8-0.8l4.5,7.7c0.7,1.2,0.4,1.2-0.7,0.7L65,26.3c-0.8-0.8-1.4-2.1-1.4-3.5
	V21.1z M60.1,38.4c0.1-0.1,2.7-2.2,5.5,1.9c1.7,2.6,3.5,4.9,5.2,6.8C65.3,42.7,60.1,38.5,60.1,38.4z M84.7,49.7
	c-0.2,1-0.1,0.6-0.1,0.9c-0.1,0.6-0.4,1.8-0.5,2.3c-0.2,0.5-0.6,0.5-0.7,0.1c0-0.2-0.4-1.7-0.7-2.3c-0.2-0.5,0.5-2.2,0.9-2.5
	C84.2,47.8,84.9,48.6,84.7,49.7z"/>
<path id="Path-34" style="fill-rule:evenodd;clip-rule:evenodd;fill:#BEBEBE;" d="M3.5,60.1c2,0.3,4.7,0.2,8.1-0.3
	c5.1-0.7,7.2-2,8.1-2.2c0.6-0.1,1.6-0.1,2.8,0c-1.2,0.9-2.5,1.7-3.8,2.2c-2,0.8-3,1.1-5.2,1.4s-3.5,0.2-6.2-0.1
	C5.5,60.9,4.3,60.5,3.5,60.1z"/>
<path id="Path-35" style="fill-rule:evenodd;clip-rule:evenodd;fill:#BEBEBE;" d="M3,45.3c1.9,0.7,3.5,1.1,5,1.3
	c2.2,0.2,3-0.3,4.6,0.3c1.1,0.4,1.6,0.9,1.5,1.4c-0.8,0-1.7,0-3-0.2c-1.8-0.3-1.9-0.3-3.3-0.7c-1.5-0.4-1.3-0.3-2.5-0.9
	C4.4,46.2,3.6,45.8,3,45.3z"/>
<path id="Path-36" style="fill-rule:evenodd;clip-rule:evenodd;fill:#BEBEBE;" d="M5.9,31.8c1.4,0.5,2.7,1,3.9,1.5
	c1.9,0.7,2.5,0.7,3.5,1.7c0.7,0.6,1.7,1.5,3,2.6c-1.9-0.3-3.3-0.7-4.2-1.1c-1.3-0.6-1.5-0.7-2.6-1.4s-1.6-1.1-2.5-1.9
	C6.6,32.7,6.2,32.2,5.9,31.8z"/>
<path id="Path-25" style="fill-rule:evenodd;clip-rule:evenodd;fill:#BEBEBE;" d="M57.5,82c-1.8-4-3.6-7.8-5.5-11.4
	c-1.9-3.6-5.1-9.9-9.9-18.9l-7-13.3L43,79.9L54,82H57.5z"/>
<path id="Path-25-Copy" style="fill-rule:evenodd;clip-rule:evenodd;fill:#BEBEBE;" d="M69.8,77.7c-3-3.6-7.1-9.1-12.5-16.6
	s-8.2-11.5-8.5-12.3l-0.9-2c-0.4-1-0.8-2.1-1-3.1l0-0.1c-0.2-1-0.3-2.1-0.2-3.1c0.1-1.1,0.4-2.1,0.8-3l2.1-4.8l0,0l-4.9,7.9
	l16.8,40.7c0.8-0.1,2.2-0.6,4.1-1.4C67.6,79,69,78.3,69.8,77.7z"/>
<path id="Path-26" style="fill-rule:evenodd;clip-rule:evenodd;fill:#BEBEBE;" d="M49.7,32.8c0,0.9,0.5,2,1.3,3.3
	c1.3,1.9,5.9,7.9,7.6,9.5c1.1,1.1,2.8,2,5,2.7c-0.5-0.1-0.9-0.1-1-0.1c-0.3,0-0.7,0.1-1.2,0.2c-1,0.2-1.2,0.1-2.4-0.3
	s-3.4-3.1-5.8-5.8s-2.7-3.3-3-4.6C50,36.7,49.8,35.1,49.7,32.8z"/>
<polygon id="Path-28" style="fill-rule:evenodd;clip-rule:evenodd;fill:#BEBEBE;" points="71.3,47.7 59.4,38.2 61.6,38.9 "/>
<path id="Path-29" style="fill-rule:evenodd;clip-rule:evenodd;fill:#BEBEBE;" d="M67.2,12.7l-2.6-9.1c-0.1,0.1-0.3,0.1-0.4,0.2
	c-0.1,0.1-0.2,0.1-0.3,0.1c0,0.6,0,1.3,0,2.1s0.1,1.6,0.2,2.5c0.4,0.8,0.9,1.7,1.6,2.7C66.3,12,66.8,12.5,67.2,12.7z"/>
<polygon id="Path-30" style="fill-rule:evenodd;clip-rule:evenodd;fill:#BEBEBE;" points="63.5,17.6 70.9,29.6 64.7,18.2 "/>
<path id="Path-31" style="fill-rule:evenodd;clip-rule:evenodd;fill:#BEBEBE;" d="M82.3,49.8c0.8,1.3,1.2,2.2,1.4,2.7
	c0.2,0.5,0.2,0.9,0,1.4"/>
</svg>
